<svg width="640" height="640" viewBox="0 0 640 640" fill="none" xmlns="http://www.w3.org/2000/svg">
  <rect width="640" height="640" rx="48" fill="#121212"/>
  <rect x="80" y="88" width="480" height="464" rx="34" fill="#1d1d1d" stroke="#3a2a16" stroke-width="4"/>
  <path d="M320 112C274.8 112 238 148.8 238 194c0 68.2 82 148 82 148s82-79.8 82-148c0-45.2-36.8-82-82-82Zm0 124c-23.2 0-42-18.8-42-42s18.8-42 42-42 42 18.8 42 42-18.8 42-42 42Z" fill="url(#paint0_linear)"/>
  <rect x="146" y="382" width="348" height="22" rx="11" fill="#ffffff"/>
  <rect x="184" y="426" width="272" height="14" rx="7" fill="#ffb72c"/>
  <rect x="230" y="462" width="180" height="12" rx="6" fill="#f3f3f3" opacity=".78"/>
  <defs>
    <linearGradient id="paint0_linear" x1="272" y1="116" x2="374" y2="334" gradientUnits="userSpaceOnUse">
      <stop stop-color="#ffd84c"/>
      <stop offset=".45" stop-color="#ff9f2d"/>
      <stop offset="1" stop-color="#f15a24"/>
    </linearGradient>
  </defs>
</svg>
